<?xml version="1.0" encoding="utf-8"?>
<!-- Generator: Adobe Illustrator 13.0.0, SVG Export Plug-In . SVG Version: 6.00 Build 14948)  -->
<!DOCTYPE svg PUBLIC "-//W3C//DTD SVG 1.1 Tiny//EN" "http://www.w3.org/Graphics/SVG/1.1/DTD/svg11-tiny.dtd">
<svg version="1.1" baseProfile="tiny" id="Layer_1" xmlns="http://www.w3.org/2000/svg" xmlns:xlink="http://www.w3.org/1999/xlink"
	 x="0px" y="0px" width="156.627px" height="99.688px" viewBox="0 0 156.627 99.688" xml:space="preserve">
<g>
	<path fill="#0050EF" d="M90.216,36.088h9.02V9.023h-9.02V36.088z M99.235,81.646h-9.02v9.021H9.018V9.021h90.218V0H0v0.111v99.24
		v0.337h99.235v-9.021V81.646z"/>
	<g>
		<path fill="#292929" d="M59.825,62.122c-0.631,0.316-2.052,0.654-3.901,0.654c-5.255,0-7.961-3.271-7.961-7.601
			c0-5.187,3.698-8.073,8.299-8.073c1.781,0,3.135,0.361,3.744,0.676l-0.699,2.729c-0.699-0.293-1.669-0.564-2.887-0.564
			c-2.729,0-4.849,1.646-4.849,5.03c0,3.044,1.804,4.961,4.871,4.961c1.038,0,2.188-0.226,2.864-0.496L59.825,62.122z"/>
		<path fill="#292929" d="M71.554,56.913c0,4.036-2.864,5.886-5.819,5.886c-3.225,0-5.706-2.12-5.706-5.684
			c0-3.563,2.345-5.841,5.886-5.841C69.298,51.274,71.554,53.597,71.554,56.913z M63.569,57.025c0,1.895,0.79,3.315,2.256,3.315
			c1.33,0,2.188-1.331,2.188-3.315c0-1.646-0.632-3.315-2.188-3.315C64.179,53.709,63.569,55.401,63.569,57.025z"/>
		<path fill="#292929" d="M72.772,55.041c0-1.376-0.045-2.549-0.091-3.519h2.887l0.158,1.488h0.067
			c0.474-0.699,1.443-1.736,3.338-1.736c1.421,0,2.549,0.722,3.022,1.872h0.045c0.406-0.563,0.902-1.015,1.421-1.331
			c0.608-0.36,1.285-0.541,2.098-0.541c2.119,0,3.721,1.488,3.721,4.781v6.495h-3.338v-5.999c0-1.602-0.519-2.525-1.624-2.525
			c-0.789,0-1.353,0.541-1.578,1.195c-0.091,0.248-0.136,0.608-0.136,0.879v6.45h-3.338v-6.18c0-1.397-0.496-2.345-1.578-2.345
			c-0.88,0-1.398,0.676-1.602,1.24c-0.112,0.271-0.135,0.586-0.135,0.856v6.428h-3.338V55.041z"/>
		<path fill="#292929" d="M91.289,55.221c0-1.443-0.045-2.685-0.091-3.699h2.978l0.157,1.534h0.046
			c0.812-1.173,2.074-1.782,3.676-1.782c2.413,0,4.578,2.098,4.578,5.615c0,4.015-2.549,5.909-5.007,5.909
			c-1.33,0-2.368-0.541-2.864-1.263h-0.045v5.48h-3.428V55.221z M94.717,57.814c0,0.271,0.022,0.519,0.067,0.722
			c0.226,0.925,1.015,1.624,2.008,1.624c1.488,0,2.367-1.24,2.367-3.112c0-1.759-0.789-3.09-2.322-3.09
			c-0.97,0-1.827,0.722-2.053,1.736c-0.045,0.181-0.067,0.406-0.067,0.609V57.814z"/>
		<path fill="#292929" d="M114.293,59.009c0,1.443,0.045,2.616,0.09,3.541h-2.977l-0.158-1.556h-0.067
			c-0.429,0.676-1.466,1.804-3.45,1.804c-2.233,0-3.879-1.398-3.879-4.804v-6.473h3.45v5.932c0,1.601,0.519,2.57,1.714,2.57
			c0.947,0,1.488-0.653,1.714-1.194c0.09-0.203,0.113-0.474,0.113-0.745v-6.563h3.45V59.009z"/>
		<path fill="#292929" d="M116.143,55.041c0-1.376-0.045-2.549-0.091-3.519h2.978l0.157,1.511h0.068
			c0.451-0.698,1.578-1.759,3.405-1.759c2.255,0,3.946,1.488,3.946,4.736v6.54h-3.428v-6.111c0-1.421-0.496-2.391-1.736-2.391
			c-0.947,0-1.512,0.653-1.736,1.285c-0.091,0.203-0.136,0.541-0.136,0.857v6.359h-3.428V55.041z"/>
		<path fill="#292929" d="M128.457,55.041c0-1.376-0.045-2.549-0.091-3.519h2.978l0.157,1.511h0.068
			c0.451-0.698,1.578-1.759,3.405-1.759c2.255,0,3.946,1.488,3.946,4.736v6.54h-3.428v-6.111c0-1.421-0.496-2.391-1.736-2.391
			c-0.947,0-1.512,0.653-1.736,1.285c-0.091,0.203-0.136,0.541-0.136,0.857v6.359h-3.428V55.041z"/>
		<path fill="#292929" d="M143.434,58.13c0.112,1.421,1.511,2.097,3.112,2.097c1.172,0,2.119-0.157,3.044-0.451l0.451,2.323
			c-1.128,0.451-2.503,0.677-3.991,0.677c-3.744,0-5.887-2.165-5.887-5.615c0-2.797,1.736-5.887,5.57-5.887
			c3.563,0,4.917,2.774,4.917,5.503c0,0.586-0.068,1.105-0.113,1.354H143.434z M147.47,55.785c0-0.835-0.36-2.232-1.939-2.232
			c-1.443,0-2.029,1.308-2.119,2.232H147.47z"/>
		<path fill="#292929" d="M151.801,46.538h3.428V62.55h-3.428V46.538z"/>
	</g>
</g>
</svg>
