<svg xmlns="http://www.w3.org/2000/svg" width="90.62" height="44.406" viewBox="0 0 90.62 44.406"><defs><style>.a{fill:#fff;}</style></defs><path class="a" d="M775.182,231.745h-6.837v2.613h6.283v4.2h-6.283V241.8h7.075V246H763.646V227.521h11.536Zm10.215,8.448L781.859,246h-4.936v-.713l5.966-9.081-5.332-7.972v-.713h4.831l3.009,4.8h.132l3.089-4.8h4.752v.713l-5.333,7.972,5.992,9.081V246h-4.963l-3.511-5.807Zm8.974-8.448v-4.224H808.1v4.224h-4.514V246h-4.672V231.745ZM826.1,245.313V246h-5.279l-3.168-5.438H815.2V246h-4.725V227.521h8.1c7.259.026,8.579,8.764,3.907,11.932Zm-7.523-13.569c-1.109-.027-2.27,0-3.379,0v4.62h3.379C821.138,236.364,821.27,231.771,818.577,231.745ZM779.959,247.5h1.69v18.532h-4.831V257.8l-3.933,4.118h-.528L768.45,257.8v8.236h-4.831V247.5h1.742l7.233,8.025Zm14.306-.185,8.342,18.03v.686h-4.62l-1.083-2.323h-7.286l-1.082,2.323h-4.62v-.686l8.316-18.03h2.032m-1.029,7.5-2.085,4.857h4.224Zm26.872,10.533v.686h-5.28l-3.168-5.438h-2.455v5.438h-4.725V247.554h8.1c7.26.026,8.579,8.764,3.907,11.932Zm-7.523-13.569c-1.109-.026-2.27,0-3.379,0v4.62h3.379C815.145,256.4,815.277,251.8,812.585,251.778Zm9.872,14.255V247.554h4.8v7h.343c4.725,0,4.488-3.537,4.488-7h4.857c0,3.775.105,7.26-3.564,9.609l5.016,8.131v.739h-5.253l-4.065-7.154a10.693,10.693,0,0,1-1.822.106v7.048Zm27.189-5.438c0-1.294-1.531-1.584-3.379-1.69-4.013-.29-6.653-1.663-6.705-5.676-.158-7.972,14.2-7.972,14.1,0H849.17c0-2.455-4.963-2.244-5.121-.053-.106,1.4,1.267,1.689,2.93,1.874,3.669.4,7.26.95,7.26,5.57,0,7.761-15.047,7.893-14.941-.238h4.567C843.864,262.733,849.646,262.76,849.646,260.6Zm-5.6-14.59a1.506,1.506,0,0,0,.952-1.183l3.172-21.035a1.507,1.507,0,0,0-2.26-1.52L827.98,232.923a1.507,1.507,0,0,0-.191,2.457l4.068,3.367a1.507,1.507,0,0,0,1.922-2.322l-2.42-2,13.36-7.939-2.3,15.256-2.366-1.956a1.507,1.507,0,0,0-1.581-.211l-1.475.667,2.812-3.382a1.507,1.507,0,0,0-2.318-1.927l-7,8.416a1.507,1.507,0,0,0,1.78,2.336l6.583-2.977,3.695,3.054a1.505,1.505,0,0,0,1.5.246Z" transform="translate(-763.619 -222.056)"/></svg>