<svg xmlns="http://www.w3.org/2000/svg" width="123" height="62" viewBox="0 0 123 62" fill="none"><path d="M71.2166 27.7263L75.6129 23.3299L79.9889 18.9336L88.7816 27.7263L85.0976 38.2083L71.2166 27.7263Z" fill="#00AAC4"></path><path d="M37.0228 38.2083L33.3389 27.7263L42.1316 18.9336L46.5075 23.3299L50.9039 27.7263L37.0228 38.2083Z" fill="#00AAC4"></path><path d="M70.5245 27.0338L74.9209 22.6374L79.3172 18.2411L70.5245 9.46875L61.7522 18.2411L66.1485 22.6374L70.5245 27.0338Z" fill="#009345"></path><path d="M61.0602 18.9336L56.6638 23.3299L52.2878 27.7263L61.0602 36.4986L69.8325 27.7263L65.4565 23.3299L61.0602 18.9336Z" fill="#00AAC4"></path><path d="M61.0552 5.9672e-06L52.2764 8.7793L61.0552 17.5586L69.8341 8.7793L61.0552 5.9672e-06Z" fill="#4D186E"></path><path d="M51.5959 9.46875L42.8032 18.2411L51.5959 27.0338L55.9923 22.6374L60.3682 18.2411L51.5959 9.46875Z" fill="#009345"></path><path d="M10.1564 58.0924C9.26081 58.0924 8.40597 57.9703 7.57148 57.7057C6.73699 57.4411 6.00426 57.0747 5.35295 56.5659C4.722 56.0571 4.25387 55.5075 3.92821 54.8766C3.60256 54.2456 3.43973 53.5943 3.43973 52.8819C3.43973 52.1899 3.60256 51.5386 3.92821 50.9076C4.25387 50.2767 4.74235 49.7068 5.35295 49.2387C5.98391 48.7502 6.69628 48.3838 7.49006 48.1192C8.3042 47.8546 9.1387 47.7121 10.0139 47.7121C10.9094 47.7121 11.805 47.8546 12.7005 48.1192C13.5961 48.3838 14.3492 48.7502 14.9598 49.2387L14.9801 49.259L17.6057 47.183H17.5854C16.6288 46.4095 15.5297 45.8193 14.2881 45.4122C13.0466 45.0051 11.7236 44.7812 10.3192 44.7812C8.93516 44.7812 7.61219 44.9848 6.35028 45.4122C5.10872 45.8193 3.98927 46.4095 3.05302 47.183C2.07605 47.936 1.32297 48.8112 0.793783 49.7882C0.264594 50.7855 0 51.8235 0 52.9023C0 54.0217 0.264594 55.0597 0.793783 56.0367C1.32297 57.0137 2.07605 57.8889 3.05302 58.6623C4.00963 59.4357 5.10872 60.026 6.35028 60.433C7.59184 60.8401 8.91481 61.064 10.3192 61.064C11.7032 61.064 13.0466 60.8401 14.3085 60.4127V57.0137C13.8403 57.2986 13.3112 57.5429 12.7413 57.7057C11.9068 57.9703 11.0316 58.0924 10.1564 58.0924Z" fill="#4D186E"></path><path d="M18.0737 61.0844H14.98V58.8659V56.3217V55.8536H10.3801V52.9023H18.0737V61.0844Z" fill="#009345"></path><path d="M34.9877 53.5332C35.5779 52.658 35.8832 51.7218 35.8832 50.7041C35.8832 49.6254 35.5372 48.6281 34.8655 47.7325C34.1939 46.8369 33.278 46.1042 32.1178 45.575C30.9577 45.0458 29.6958 44.7812 28.3321 44.7812H20.2111V61.0233H23.9357V56.6677H28.3321C28.5763 56.6677 28.9223 56.6473 29.3701 56.6269C29.7365 57.5836 30.2453 58.3773 30.8966 59.0083C32.0771 60.1888 33.5833 60.8605 35.4151 61.0029V57.7464C34.6009 57.5632 33.9089 57.1765 33.339 56.6066C33.1355 56.4031 32.8913 56.0774 32.6063 55.65C33.5833 55.1004 34.3974 54.3881 34.9877 53.5332ZM31.6497 52.2103C31.3037 52.6784 30.8356 53.0447 30.2657 53.3093C29.6754 53.5739 29.0445 53.7164 28.3321 53.7164H23.9357V47.7121H28.3321C29.0445 47.7121 29.6754 47.8546 30.2657 48.1192C30.8559 48.3838 31.324 48.7502 31.6497 49.2183C31.9957 49.6864 32.1585 50.1749 32.1585 50.7041C32.1585 51.2536 31.9754 51.7625 31.6497 52.2103Z" fill="#4D186E"></path><path d="M54.303 47.1841C53.3464 46.4107 52.2473 45.8408 51.0057 45.4133C49.7641 45.0063 48.4412 44.8027 47.0571 44.8027C45.6731 44.8027 44.3501 45.0063 43.1086 45.4133C41.867 45.8204 40.7679 46.4107 39.8113 47.1841C38.8344 47.9372 38.0813 48.8124 37.5521 49.7893C37.0229 50.7866 36.7583 51.8043 36.7583 52.883C36.7583 53.9821 37.0229 55.0405 37.5521 56.0175C38.0813 56.9944 38.8344 57.8696 39.8113 58.6431C40.7679 59.4165 41.867 59.9864 43.1086 60.4138C44.3501 60.8209 45.6731 61.0244 47.0571 61.0244C48.4412 61.0244 49.7641 60.8209 51.0057 60.4138C52.2473 60.0068 53.3464 59.4165 54.303 58.6431C55.2799 57.8696 56.033 56.9944 56.5622 56.0175C57.0914 55.0202 57.356 53.9821 57.356 52.9034C57.356 51.8247 57.0914 50.807 56.5622 49.8097C56.033 48.8124 55.2799 47.9372 54.303 47.1841ZM52.7154 55.5086C52.1251 56.3024 51.3314 56.9334 50.334 57.4015C49.3367 57.8696 48.2376 58.1139 47.0368 58.1139C45.8563 58.1139 44.7572 57.89 43.7395 57.4015C42.7422 56.9334 41.9281 56.3024 41.3378 55.5086C40.7476 54.7149 40.4423 53.8397 40.4423 52.883C40.4423 51.9468 40.7476 51.0716 41.3378 50.2778C41.9281 49.484 42.7219 48.8531 43.7395 48.3849C44.7368 47.9168 45.8359 47.6929 47.0368 47.6929C48.2173 47.6929 49.3164 47.9168 50.334 48.3849C51.3314 48.8531 52.1455 49.4637 52.7154 50.2778C53.3056 51.0716 53.5906 51.9468 53.5906 52.883C53.5906 53.8397 53.3056 54.7149 52.7154 55.5086Z" fill="#4D186E"></path><path d="M84.304 54.2456H90.471V51.4775H84.304V47.4883H90.8985V44.7812H80.8439V61.0029H90.8985V58.2959H84.304V54.2456Z" fill="#4D186E"></path><path d="M101.319 52.8005L106.896 44.7812H102.948L99.3043 50.0731L95.6814 44.7812H91.6921L97.33 52.8819L91.7125 61.0029H95.6204L99.3043 55.7314L102.968 61.0029H106.896L101.279 52.8819L101.319 52.8005Z" fill="#4D186E"></path><path d="M122.1 61.0029L116.483 52.8819L116.544 52.8005L122.121 44.7812H118.172L114.508 50.0731L110.886 44.7812H106.896L112.554 52.8819L106.937 61.0029H110.845L114.508 55.7314L118.172 61.0029H122.1Z" fill="#4D186E"></path><path d="M76.2644 44.8838L73.1096 56.8516L69.9548 44.8838H66.6169L63.4621 56.8313L60.3073 44.8838H57.1118L61.3453 60.9427H65.5789L68.2859 50.6845L70.9929 60.9427H75.2264L79.4599 44.8838H76.2644Z" fill="#4D186E"></path></svg>