<?xml version="1.0" encoding="utf-8"?>
<!-- Generator: Adobe Illustrator 19.0.0, SVG Export Plug-In . SVG Version: 6.00 Build 0)  -->
<svg version="1.1" id="Layer_1" xmlns="http://www.w3.org/2000/svg" xmlns:xlink="http://www.w3.org/1999/xlink" x="0px" y="0px"
	 viewBox="-285 262.3 218.5 41.3" style="enable-background:new -285 262.3 218.5 41.3;" xml:space="preserve">
<style type="text/css">
	.st0{fill:#FFFFFF;}
	.st1{fill:#EF4343;}
	.st2{fill:#EF4342;stroke:#EF4342;stroke-width:0.3;stroke-miterlimit:10;}
</style>
<g>
	<path class="st0" d="M-219.8,264.1c-0.9,0.7-1,1.3-1,1.9c0.2,4,0.4,8,0.8,12.1c0.1-0.3,0.3-0.6,0.4-0.9c1.7-4.1,3.4-8.1,5-12.2
		c0.3-0.7,0.7-0.9,1.4-0.9c2.4,0,5.5,0.1,7.7,0.1c-1.4,0.7-1.9,1.6-2.2,2.5c-3.3,7.4-6.6,14.8-9.8,22.3c-0.4,0.9-0.9,1.2-1.8,1.1
		c-2.1-0.1-4.2,0-6.5,0c-0.3-5.3-0.6-10.6-0.9-15.8c-0.1,0-0.1-0.1-0.2-0.1c-0.2,0.3-0.3,0.6-0.5,0.9c-2.3,4.7-4.7,9.4-7,14.2
		c-0.3,0.6-0.6,0.9-1.3,0.8c-2,0-4,0-6,0c-0.3,0-0.6,0-0.9-0.1c0-8.6,0-17.1,0-25.7c2.7,0,5.4,0,8.3,0c-1,0.7-0.9,1.7-0.9,2.7
		c-0.1,3.7-0.2,7.5-0.2,11.3c0.1-0.2,0.3-0.4,0.4-0.7c2.1-4.2,4.1-8.3,6.2-12.5c0.3-0.6,0.7-0.9,1.4-0.9
		C-225.1,264.1-222.1,264.1-219.8,264.1z"/>
	<path class="st1" d="M-119.8,289.8c0.2-0.4,0.4-0.7,0.5-1c4.7-8,9.5-15.9,14.2-23.9c0.3-0.6,0.7-0.8,1.4-0.8c2.8,0,6.1,0,9,0
		c-1.5,0.8-0.8,2.7-0.6,4c1.1,7.1,2.2,14.2,3.3,21.3c0,0.1,0,0.1-0.1,0.3c-2.6,0-5.3,0-8,0c-0.1-1-0.2-2.1-0.3-3.1
		c0-0.8-0.3-1.1-1.1-1c-2.5,0-4.9,0-7.4,0c-0.6,0-1,0.2-1.2,0.8c0,0.1-0.1,0.1-0.1,0.2c-0.6,1.1-0.9,2.6-1.9,3.1
		c-0.9,0.6-2.4,0.2-3.7,0.2C-117.1,289.8-118.4,289.8-119.8,289.8z M-101.8,271c-0.1,0-0.2,0-0.3-0.1c-1.6,3-3.1,6-4.8,9.2
		c1.8,0,3.4,0,4.9,0c0.7,0,1-0.2,0.9-0.9c-0.2-2-0.4-3.9-0.5-5.9C-101.6,272.6-101.7,271.8-101.8,271z"/>
	<path class="st0" d="M-185.1,270.4c-2.8,0-5.4,0-8.1,0c0.5-2.1,0.9-4,1.4-6c0.1-0.2,0.6-0.4,0.9-0.4c3,0,6,0,9,0
		c5,0,10.4,0.1,15.6,0.1c-1.8,0.7-1.8,3-2.3,4.8c-0.1,0.4-0.2,0.9-0.3,1.5c-2.7,0-5.4,0-8.1,0c-0.7,3.2-1.4,6.3-2.1,9.3
		c-0.7,3.1-1.4,6.2-2.1,9.4c-0.1,0.3-0.4,0.8-0.6,0.8c-2.4,0.1-4.8,0-7.5,0C-187.9,283.4-186.5,277-185.1,270.4z"/>
	<path class="st1" d="M-132,273.8c4.2,0,8.1,0,12.4,0c-0.4,1.7-0.7,3.2-1.1,4.7c-0.1,0.2-0.6,0.3-0.9,0.4c-3.5,0-7,0-10.5,0
		c-0.8,0-1.1,0.2-1.3,1c-0.2,1.4-0.6,2.7-0.9,4.3c4.6,0,9.1,0,13.8,0c-0.4,1.8-0.7,3.5-1.2,5.1c-0.1,0.3-0.6,0.5-1,0.5
		c-3.2,0-6.5,0-9.7,0s-6.5,0-9.7,0c-0.4,0-0.7,0-1.3,0c0.3-1.5,0.6-2.8,0.9-4.1c0.9-4.2,1.9-8.4,2.8-12.6c0.1-0.6,0.3-0.8,0.9-0.9
		c2.4-0.3,4.8-0.8,7.3-1.2C-131.7,272-131.8,272.8-132,273.8z"/>
	<path class="st1" d="M-89.3,289.8c0.5-2.3,0.9-4.4,1.4-6.6c1.3-6,2.7-12,3.9-18c0.2-0.8,0.4-1.1,1.3-1.1c2.3,0.1,5.6,0.1,7.7,0.1
		c-1.3,0.1-3.8,12.8-5.3,19.4c4.2,0,8.2,0,12.5,0c-0.5,2-0.9,3.9-1.3,5.8c0,0.2-0.6,0.4-1,0.4c-5,0-10,0-14.9,0
		C-86.3,289.8-87.7,289.8-89.3,289.8z"/>
	<path class="st1" d="M-160.7,284.5c4.9,0,9.7,0,14.7,0c-0.4,1.8-0.7,3.4-1.1,5c-0.1,0.2-0.7,0.3-1,0.3c-6.2,0-12.5,0-18.7,0
		c-1.5,0-3,0-4.7,0c0.4-1.8,0.7-3.4,1.1-5.1c0.1-0.2,0.3-0.4,0.5-0.6c3.2-2.7,6.4-5.4,9.6-8.1c0.4-0.3,1-0.5,1.5-0.6
		c3.2-0.6,6.4-1.1,9.8-1.4c-3.9,3.4-7.9,6.7-11.8,10.1C-160.8,284.3-160.7,284.4-160.7,284.5z"/>
	<path class="st0" d="M-194.4,264.2c-1.4,0.5-1.6,1.3-1.7,2c-1.7,7.6-3.4,15.2-5.1,22.8c-0.1,0.3-0.2,0.6-0.3,0.9
		c-2.6,0-5.2,0-7.9,0c0.5-2.3,1-4.5,1.4-6.6c1.3-6,2.7-12,3.9-18c0.2-0.9,0.5-1.2,1.4-1.2C-200.1,264.1-196.8,264.2-194.4,264.2z"/>
	<path class="st1" d="M-140.8,264.1c-1.6,0.6-1.6,1.7-1.8,2.5c-0.6,2.8-0.6,2.8-3.5,2.8c-6,0-12.1,0-18.1,0c-0.4,0-0.9,0-1.4-0.1
		c0.4-1.7,0.7-3.3,1.1-4.8c0.1-0.2,0.6-0.4,1-0.4c3.5,0,7,0,10.5,0C-149.2,264.2-144.4,264.1-140.8,264.1z"/>
	<path class="st1" d="M-115.3,264.1c-1.5,0.5-1.6,1.9-1.9,2.8c-0.8,3,0.1,2.5-3.1,2.6c-5.7,0-11.4,0-17.2,0c-0.4,0-0.9,0-1.4-0.1
		c0.4-1.7,0.7-3.3,1.1-4.9c0.1-0.2,0.7-0.4,1-0.4c5.7,0,11.4,0,17.2,0C-118.5,264.2-116.2,264.1-115.3,264.1z"/>
	<g>
		<path class="st0" d="M-238.4,302.9c0,0.1,0.1,0.2,0.3,0.2v0.2h-2.1v-0.2c0.1,0,0.1,0,0.2-0.1c0.1,0,0.1-0.1,0.1-0.2v-5.1h-2.2
			c-0.1,0-0.2,0-0.2,0.1c-0.1,0-0.1,0.1-0.1,0.2h-0.2v-1.8h0.2c0,0.1,0,0.2,0.1,0.2c0.1,0,0.1,0.1,0.2,0.1h6c0.1,0,0.2,0,0.2-0.1
			c0.1,0,0.1-0.1,0.1-0.2h0.2v1.8h-0.2c0-0.1,0-0.2-0.1-0.2c-0.1,0-0.1-0.1-0.2-0.1h-2.2L-238.4,302.9L-238.4,302.9z"/>
		<path class="st0" d="M-227.3,298c0-0.1,0-0.2-0.1-0.2c-0.1,0-0.2-0.1-0.4-0.1h-4.3v1.6h2.6c0.2,0,0.3,0,0.4-0.1
			c0.1,0,0.1-0.2,0.1-0.4h0.2v2h-0.2c0-0.2-0.1-0.3-0.1-0.4c-0.1,0-0.2-0.1-0.4-0.1h-2.6v1.8h4.5c0.1,0,0.2,0,0.3-0.1
			c0.1-0.1,0.1-0.1,0.1-0.2h0.2v1.8h-0.2c0-0.1,0-0.2-0.1-0.2c-0.1,0-0.2,0-0.3,0h-6.3v-0.2c0.1,0,0.1,0,0.2-0.1
			c0,0,0.1-0.1,0.1-0.2v-5.8c0-0.1,0-0.1-0.1-0.2c-0.1,0-0.1-0.1-0.2-0.1v-0.2h6.1c0.2,0,0.3,0,0.4-0.1c0.1-0.1,0.1-0.1,0.1-0.2h0.2
			v1.7L-227.3,298L-227.3,298z"/>
		<path class="st0" d="M-217.5,302.4C-217.5,302.4-217.5,302.4-217.5,302.4c-0.1,0-0.1,0-0.1,0c0,0-0.2,0.1-0.4,0.2
			c-0.2,0.1-0.5,0.2-0.8,0.3c-0.3,0.1-0.7,0.2-1.1,0.3c-0.4,0.1-0.8,0.1-1.2,0.1c-0.6,0-1.1-0.1-1.6-0.2c-0.5-0.1-1-0.3-1.4-0.6
			c-0.4-0.3-0.7-0.6-0.9-1.1c-0.2-0.4-0.4-0.9-0.4-1.5c0-0.6,0.1-1.1,0.4-1.5c0.2-0.4,0.6-0.8,0.9-1.1c0.4-0.3,0.9-0.5,1.4-0.6
			c0.5-0.1,1.1-0.2,1.6-0.2c0.5,0,0.9,0,1.2,0.1c0.4,0.1,0.7,0.1,1,0.2c0.3,0.1,0.5,0.2,0.7,0.2c0.2,0.1,0.3,0.1,0.3,0.1
			c0,0,0.1,0,0.1-0.1s0.1-0.1,0.1-0.1l0.2,0.1l-1.1,1.6l-0.1-0.1c0,0,0,0,0-0.1c0,0,0,0,0-0.1c0-0.1-0.1-0.2-0.3-0.3
			s-0.4-0.2-0.6-0.3c-0.2-0.1-0.5-0.1-0.8-0.2c-0.3-0.1-0.5-0.1-0.7-0.1c-0.4,0-0.7,0-1.1,0.1s-0.6,0.3-0.9,0.4
			c-0.3,0.2-0.5,0.4-0.6,0.7c-0.1,0.3-0.2,0.6-0.2,1s0.1,0.7,0.2,1c0.2,0.3,0.4,0.5,0.6,0.7c0.3,0.2,0.5,0.3,0.9,0.4
			c0.3,0.1,0.7,0.1,1.1,0.1c0.3,0,0.6,0,0.9-0.1c0.3-0.1,0.6-0.1,0.9-0.2c0.3-0.1,0.5-0.2,0.7-0.3s0.3-0.2,0.3-0.4
			c0-0.1,0-0.1,0-0.1l0.2-0.1l0.9,1.4L-217.5,302.4z"/>
		<path class="st0" d="M-209,297.1c0-0.1-0.1-0.2-0.3-0.2v-0.2h2.1v0.2c-0.1,0-0.1,0-0.2,0.1c0,0-0.1,0.1-0.1,0.2v5.8
			c0,0.1,0,0.1,0.1,0.2c0.1,0,0.1,0.1,0.2,0.1v0.2h-2.1v-0.2c0.2,0,0.3-0.1,0.3-0.2v-2.4h-4.3v2.4c0,0.1,0,0.1,0.1,0.2
			c0,0,0.1,0.1,0.2,0.1v0.2h-2v-0.2c0.2,0,0.3-0.1,0.3-0.2v-5.8c0-0.1-0.1-0.2-0.3-0.2v-0.2h2v0.2c-0.1,0-0.1,0-0.2,0.1
			c-0.1,0-0.1,0.1-0.1,0.2v2.2h4.3V297.1z"/>
		<path class="st0" d="M-204.8,303.1c0.2,0,0.3-0.1,0.3-0.2v-5.8c0-0.1-0.1-0.2-0.3-0.2v-0.2h2.3v0.2c-0.1,0-0.1,0-0.1,0.1
			c0,0.1,0.1,0.2,0.3,0.4l3.9,3.8v-4.1c0-0.1-0.1-0.2-0.4-0.2v-0.2h2v0.2c-0.2,0-0.3,0.1-0.3,0.2v5.8c0,0.1,0.1,0.2,0.3,0.2v0.2
			h-2.2v-0.2c0.1,0,0.2,0,0.2-0.1c0-0.1-0.1-0.2-0.2-0.3l-4.1-4.1v4.2c0,0.1,0.1,0.2,0.3,0.2v0.2h-2L-204.8,303.1L-204.8,303.1z"/>
		<path class="st0" d="M-190.3,296.5c0.5,0,1,0.1,1.5,0.2c0.5,0.1,1,0.3,1.4,0.6c0.4,0.3,0.8,0.6,1,1.1c0.3,0.4,0.4,0.9,0.4,1.5
			c0,0.6-0.1,1.1-0.4,1.5c-0.3,0.4-0.6,0.8-1,1.1s-0.9,0.5-1.4,0.6c-0.5,0.1-1,0.2-1.5,0.2s-1-0.1-1.5-0.2s-1-0.3-1.4-0.6
			s-0.8-0.6-1-1.1c-0.3-0.4-0.4-0.9-0.4-1.5c0-0.6,0.1-1.1,0.4-1.5c0.3-0.4,0.6-0.8,1-1.1c0.4-0.3,0.9-0.5,1.4-0.6
			C-191.3,296.6-190.8,296.5-190.3,296.5z M-190.3,297.7c-0.3,0-0.7,0-1,0.1c-0.3,0.1-0.6,0.3-0.9,0.4s-0.5,0.4-0.7,0.7
			s-0.3,0.6-0.3,1c0,0.4,0.1,0.7,0.3,1s0.4,0.5,0.7,0.7c0.3,0.2,0.6,0.3,0.9,0.4s0.7,0.1,1,0.1c0.3,0,0.7,0,1-0.1
			c0.3-0.1,0.6-0.3,0.9-0.4s0.5-0.4,0.7-0.7c0.2-0.3,0.3-0.6,0.3-1c0-0.4-0.1-0.7-0.3-1s-0.4-0.5-0.7-0.7c-0.3-0.2-0.6-0.3-0.9-0.4
			C-189.6,297.8-190,297.7-190.3,297.7z"/>
		<path class="st0" d="M-177.4,303.6c0-0.1,0-0.2-0.1-0.2c-0.1,0-0.2,0-0.3,0h-6.4v-0.2c0.3,0,0.4-0.1,0.4-0.2v-5.8
			c0-0.1-0.1-0.2-0.4-0.2v-0.2h2.3v0.2c-0.3,0-0.4,0.1-0.4,0.2v5.1h4.4c0.1,0,0.2,0,0.3-0.1c0.1-0.1,0.1-0.1,0.1-0.2h0.2v1.8H-177.4
			z"/>
		<path class="st0" d="M-171.7,296.5c0.5,0,1,0.1,1.5,0.2c0.5,0.1,1,0.3,1.4,0.6c0.4,0.3,0.8,0.6,1,1.1c0.3,0.4,0.4,0.9,0.4,1.5
			c0,0.6-0.1,1.1-0.4,1.5c-0.3,0.4-0.6,0.8-1,1.1s-0.9,0.5-1.4,0.6c-0.5,0.1-1,0.2-1.5,0.2s-1-0.1-1.5-0.2s-1-0.3-1.4-0.6
			s-0.8-0.6-1-1.1c-0.3-0.4-0.4-0.9-0.4-1.5c0-0.6,0.1-1.1,0.4-1.5c0.3-0.4,0.6-0.8,1-1.1c0.4-0.3,0.9-0.5,1.4-0.6
			C-172.7,296.6-172.2,296.5-171.7,296.5z M-171.7,297.7c-0.3,0-0.7,0-1,0.1c-0.3,0.1-0.6,0.3-0.9,0.4s-0.5,0.4-0.7,0.7
			s-0.3,0.6-0.3,1c0,0.4,0.1,0.7,0.3,1s0.4,0.5,0.7,0.7c0.3,0.2,0.6,0.3,0.9,0.4s0.7,0.1,1,0.1c0.3,0,0.7,0,1-0.1
			c0.3-0.1,0.6-0.3,0.9-0.4s0.5-0.4,0.7-0.7c0.2-0.3,0.3-0.6,0.3-1c0-0.4-0.1-0.7-0.3-1s-0.4-0.5-0.7-0.7c-0.3-0.2-0.6-0.3-0.9-0.4
			C-171,297.8-171.3,297.7-171.7,297.7z"/>
		<path class="st0" d="M-158.9,298.7l-0.3-0.1c0-0.1,0-0.1,0-0.2c0-0.1-0.1-0.2-0.3-0.3c-0.2-0.1-0.4-0.2-0.6-0.3s-0.5-0.1-0.8-0.2
			c-0.3,0-0.6-0.1-0.9-0.1c-0.3,0-0.7,0-1,0.1s-0.6,0.2-0.9,0.4c-0.3,0.2-0.5,0.4-0.6,0.7c-0.2,0.3-0.2,0.7-0.2,1.1
			c0,0.4,0.1,0.8,0.2,1.1c0.2,0.3,0.4,0.5,0.6,0.7s0.6,0.3,0.9,0.4c0.3,0.1,0.6,0.1,1,0.1c0.5,0,1,0,1.4-0.1c0.4-0.1,0.8-0.2,1-0.3
			v-1.1h-1.7c-0.1,0-0.2,0-0.3,0.1c-0.1,0-0.1,0.2-0.1,0.3h-0.2v-1.6h0.2c0,0.1,0.1,0.2,0.1,0.3c0.1,0,0.1,0.1,0.3,0.1h3.4v0.2
			c-0.2,0-0.3,0.1-0.3,0.1c0,0-0.1,0.1-0.1,0.2v1.4c0,0.1,0,0.1,0.1,0.2c0.1,0,0.1,0,0.2,0.1v0.2c-0.3,0.2-0.6,0.4-0.9,0.5
			c-0.3,0.1-0.7,0.2-1,0.3s-0.7,0.1-1,0.1c-0.3,0-0.7,0-1,0c-0.6,0-1.2-0.1-1.7-0.2c-0.5-0.1-1-0.4-1.3-0.7
			c-0.4-0.3-0.6-0.6-0.9-1.1c-0.2-0.4-0.3-0.9-0.3-1.4c0-0.5,0.1-1,0.3-1.4c0.2-0.4,0.5-0.8,0.9-1.1c0.4-0.3,0.8-0.5,1.3-0.7
			c0.5-0.2,1.1-0.2,1.7-0.2c0.4,0,0.8,0,1.1,0.1s0.7,0.1,0.9,0.2s0.5,0.1,0.7,0.2c0.2,0,0.3,0.1,0.3,0.1c0.1,0,0.1,0,0.2,0
			c0,0,0.1-0.1,0.1-0.1l0.2,0.1L-158.9,298.7z"/>
		<path class="st0" d="M-155.7,303.1c0.2,0,0.4-0.1,0.4-0.2v-5.8c0-0.1-0.1-0.2-0.4-0.2v-0.2h2.2v0.2c-0.2,0-0.4,0.1-0.4,0.2v5.8
			c0,0.1,0.1,0.2,0.4,0.2v0.2h-2.2V303.1z"/>
		<path class="st0" d="M-144.5,298c0-0.1,0-0.2-0.1-0.2c-0.1,0-0.2-0.1-0.4-0.1h-4.4v1.6h2.6c0.2,0,0.3,0,0.4-0.1
			c0.1,0,0.1-0.2,0.1-0.4h0.2v2h-0.2c0-0.2-0.1-0.3-0.1-0.4c-0.1,0-0.2-0.1-0.4-0.1h-2.6v1.8h4.5c0.1,0,0.2,0,0.3-0.1
			c0.1-0.1,0.1-0.1,0.1-0.2h0.2v1.8h-0.2c0-0.1,0-0.2-0.1-0.2c-0.1,0-0.2,0-0.3,0h-6.3v-0.2c0.1,0,0.1,0,0.2-0.1
			c0.1,0,0.1-0.1,0.1-0.2v-5.8c0-0.1,0-0.1-0.1-0.2s-0.1-0.1-0.2-0.1v-0.2h6.1c0.2,0,0.3,0,0.4-0.1c0.1-0.1,0.1-0.1,0.1-0.2h0.2v1.7
			L-144.5,298L-144.5,298z"/>
		<path class="st0" d="M-141.7,301.2l0.1,0.1c0,0.1,0,0.1,0.1,0.2c0.1,0.1,0.2,0.2,0.4,0.3s0.4,0.2,0.6,0.3s0.5,0.1,0.7,0.2
			c0.3,0.1,0.5,0.1,0.7,0.1c0.1,0,0.4,0,0.6,0c0.2,0,0.5-0.1,0.7-0.1c0.2-0.1,0.4-0.2,0.6-0.3c0.2-0.1,0.3-0.3,0.3-0.5
			c0-0.2-0.1-0.3-0.2-0.4c-0.1-0.1-0.4-0.2-0.6-0.2c-0.3,0-0.6-0.1-0.9-0.1c-0.3,0-0.7,0-1-0.1s-0.7-0.1-1-0.1s-0.6-0.2-0.9-0.3
			c-0.3-0.1-0.5-0.3-0.6-0.6c-0.2-0.2-0.2-0.6-0.2-1c0-0.3,0.1-0.5,0.2-0.8c0.1-0.3,0.3-0.5,0.6-0.7c0.3-0.2,0.6-0.4,1-0.5
			c0.4-0.1,0.9-0.2,1.4-0.2c0.5,0,0.9,0,1.2,0.1c0.4,0.1,0.6,0.1,0.9,0.2c0.3,0.1,0.5,0.1,0.6,0.2s0.3,0.1,0.4,0.1
			c0.1,0,0.2,0,0.3-0.1l0.2,0.1l-0.9,1.6l-0.1-0.1c0-0.1-0.1-0.2-0.1-0.3c-0.1-0.1-0.2-0.2-0.4-0.3c-0.2-0.1-0.4-0.2-0.6-0.3
			c-0.2-0.1-0.5-0.1-0.7-0.2c-0.3,0-0.5-0.1-0.8-0.1c-0.2,0-0.4,0-0.6,0c-0.2,0-0.4,0.1-0.6,0.1c-0.2,0.1-0.3,0.1-0.4,0.2
			s-0.2,0.2-0.2,0.4c0,0.2,0.1,0.4,0.2,0.5s0.4,0.2,0.6,0.2c0.3,0,0.6,0.1,0.9,0.1c0.3,0,0.7,0,1,0.1c0.3,0,0.7,0.1,1,0.1
			c0.3,0.1,0.6,0.2,0.9,0.3c0.3,0.1,0.5,0.3,0.6,0.6c0.2,0.2,0.2,0.6,0.2,0.9c0,0.4-0.1,0.8-0.4,1.1c-0.3,0.3-0.6,0.5-0.9,0.7
			c-0.4,0.2-0.8,0.3-1.2,0.3c-0.4,0-0.8,0.1-1.2,0.1c-0.5,0-0.9,0-1.3-0.1c-0.3-0.1-0.6-0.1-0.9-0.2c-0.2-0.1-0.4-0.1-0.5-0.2
			c-0.1-0.1-0.3-0.1-0.4-0.1c-0.1,0-0.1,0-0.2,0.1l-0.2-0.1L-141.7,301.2z"/>
		<path class="st0" d="M-129.3,303.4v-0.2c0.3,0,0.5-0.1,0.5-0.2v-5.8c0-0.1-0.2-0.2-0.5-0.2v-0.2h4.7c0.9,0,1.5,0.1,2,0.5
			c0.5,0.3,0.7,0.8,0.7,1.5c0,0.7-0.3,1.2-0.7,1.5c-0.5,0.3-1.2,0.5-2,0.5h-2.7v2.3c0,0.1,0.1,0.2,0.4,0.2v0.2L-129.3,303.4
			L-129.3,303.4z M-124.4,299.4c0.3,0,0.6,0,0.8-0.2c0.2-0.1,0.3-0.3,0.3-0.6s-0.1-0.5-0.3-0.7c-0.2-0.1-0.5-0.2-0.8-0.2h-2.9v1.6
			L-124.4,299.4L-124.4,299.4z"/>
		<path class="st0" d="M-112.7,296.9c-0.2,0-0.3,0.1-0.4,0.2c-0.1,0.1-0.1,0.2-0.2,0.3l-2.4,5c-0.1,0.2-0.1,0.3-0.2,0.4
			s-0.1,0.2-0.1,0.2c0,0,0,0.1,0,0.1c0,0,0.1,0.1,0.1,0.1v0.2h-2.1v-0.2c0.1,0,0.1-0.1,0.1-0.2c0,0,0-0.1-0.1-0.3
			c-0.1-0.1-0.1-0.3-0.3-0.5l-2.4-5c0-0.1-0.1-0.2-0.2-0.2c-0.1,0-0.2-0.1-0.4-0.1v-0.2h2.4v0.2c-0.1,0-0.1,0-0.2,0
			c-0.1,0-0.1,0.1-0.1,0.2c0,0.1,0,0.2,0.1,0.4c0.1,0.2,0.2,0.3,0.3,0.5l1.7,3.5l1.7-3.5c0.1-0.2,0.2-0.4,0.3-0.6
			c0.1-0.2,0.1-0.3,0.1-0.4c0-0.1-0.1-0.2-0.4-0.2v-0.2h2.4L-112.7,296.9L-112.7,296.9z"/>
		<path class="st0" d="M-107.6,302.9c0,0.1,0.1,0.2,0.3,0.2v0.2h-2.1v-0.2c0.1,0,0.1,0,0.2-0.1c0.1,0,0.1-0.1,0.1-0.2v-5.1h-2.2
			c-0.1,0-0.2,0-0.2,0.1c-0.1,0-0.1,0.1-0.1,0.2h-0.2v-1.8h0.2c0,0.1,0,0.2,0.1,0.2c0.1,0,0.1,0.1,0.2,0.1h6c0.1,0,0.2,0,0.2-0.1
			c0.1,0,0.1-0.1,0.1-0.2h0.2v1.8h-0.2c0-0.1,0-0.2-0.1-0.2c-0.1,0-0.1-0.1-0.2-0.1h-2.2L-107.6,302.9L-107.6,302.9z"/>
		<path class="st0" d="M-92.4,303.6c0-0.1,0-0.2-0.1-0.2c-0.1,0-0.2,0-0.3,0h-6.4v-0.2c0.3,0,0.4-0.1,0.4-0.2v-5.8
			c0-0.1-0.1-0.2-0.4-0.2v-0.2h2.3v0.2c-0.3,0-0.4,0.1-0.4,0.2v5.1h4.4c0.1,0,0.2,0,0.3-0.1c0.1-0.1,0.1-0.1,0.1-0.2h0.2v1.8H-92.4z
			"/>
		<path class="st0" d="M-87.1,302.9c0,0.1,0.1,0.2,0.3,0.2v0.2h-2.1v-0.2c0.1,0,0.1,0,0.2-0.1c0.1,0,0.1-0.1,0.1-0.2v-5.1h-2.2
			c-0.1,0-0.2,0-0.2,0.1c-0.1,0-0.1,0.1-0.1,0.2h-0.2v-1.8h0.2c0,0.1,0,0.2,0.1,0.2c0.1,0,0.1,0.1,0.2,0.1h6c0.1,0,0.2,0,0.2-0.1
			c0.1,0,0.1-0.1,0.1-0.2h0.2v1.8h-0.2c0-0.1,0-0.2-0.1-0.2c-0.1,0-0.1-0.1-0.2-0.1h-2.2L-87.1,302.9L-87.1,302.9z"/>
		<path class="st0" d="M-78.3,296.6c0.5,0,0.9,0.1,1.4,0.2c0.4,0.1,0.8,0.3,1.1,0.6c0.3,0.3,0.6,0.6,0.7,1c0.2,0.4,0.3,0.9,0.3,1.5
			s-0.1,1.1-0.3,1.5c-0.2,0.4-0.4,0.8-0.7,1.1c-0.3,0.3-0.7,0.5-1.1,0.6c-0.4,0.1-0.9,0.2-1.4,0.2h-4.4v-0.2c0.2,0,0.3-0.1,0.3-0.2
			v-5.8c0-0.1-0.1-0.2-0.3-0.2v-0.2L-78.3,296.6L-78.3,296.6z M-78.9,302.3c0.4,0,0.8,0,1.1-0.1c0.3-0.1,0.6-0.2,0.8-0.4
			c0.2-0.2,0.4-0.4,0.5-0.7s0.1-0.7,0.1-1.1s-0.1-0.8-0.1-1.1c-0.1-0.3-0.3-0.5-0.5-0.7c-0.2-0.2-0.5-0.3-0.8-0.4s-0.7-0.1-1.1-0.1
			h-2.1v4.5C-80.9,302.3-78.9,302.3-78.9,302.3z"/>
		<path class="st0" d="M-73,302.5c0-0.3,0.1-0.5,0.3-0.6s0.4-0.3,0.7-0.3s0.5,0.1,0.7,0.3s0.3,0.4,0.3,0.6s-0.1,0.5-0.3,0.6
			c-0.2,0.2-0.4,0.3-0.7,0.3s-0.5-0.1-0.7-0.3C-72.9,303-73,302.8-73,302.5z"/>
	</g>
	<g>
		<path class="st2" d="M-277.3,291.2c0.9-0.7,1.6-1.3,1.5-2.4c0-0.2,0.3-0.4,0.4-0.6c0.1,0.2,0.4,0.4,0.4,0.6c0,0.6,0.4,0.7,0.8,0.7
			c1.4,0,2.7,0,4,0c1.1,0,1.6,0.5,1.6,1.6c0,1.5-1.2,3.7-2.6,4.1c-1.3,0.3-2.7,0.1-4,0c-0.2,0-0.6-0.5-0.6-0.8
			c-0.3-1.1,0.3-2,1.1-2.4c0.6-0.3,1.5-0.3,2.2-0.3c0.1,0,0.2,0.3,0.3,0.5c-0.2,0.1-0.4,0.3-0.6,0.3c-0.7,0-1.4,0-1.8,0.7
			c-0.2,0.3-0.2,0.6-0.3,1c0.3,0.1,0.6,0.2,0.9,0.3c0.1,0,0.3,0,0.5,0c1.6,0.3,2.8-0.4,3.8-1.6c0.2-0.2,0.4-0.5,0.4-0.8
			c0.2-1.3-0.1-1.6-1.4-1.6c-0.9,0-1.8,0.1-2.7,0c-1-0.1-1.9,0.2-2.5,1c-0.8,1.2-2,1.4-3.3,1.2c-0.3,0-0.5-0.3-0.8-0.4
			c0.2-0.2,0.5-0.4,0.7-0.5c0.3-0.1,0.6,0,1.1,0c0-1.1,0-2.1,0-3.1c0-1-0.1-1.9,0-2.9c0-0.3,0.2-0.7,0.4-0.8c0.4,0,0.9,0.1,1.3,0.2
			c-0.1,0.2-0.2,0.5-0.3,0.7c-0.1,0.2-0.3,0.4-0.5,0.6c0.2,0.1,0.4,0.4,0.7,0.4c0.8,0,1.7,0.1,2.5,0c0.4-0.1,1-0.4,1-0.8
			c0.2-0.7,0.1-1.5,0-2.3c0-0.2-0.7-0.4-1-0.4c-0.3,0-0.7,0.4-0.9,0.6c-0.1,0.1,0,0.4,0,0.5c-0.1,0.2-0.3,0.4-0.4,0.6
			c-0.2-0.2-0.5-0.3-0.4-0.5c0.1-1.4-0.9-1.2-1.7-1.2c-0.7,0-1.4,0-2.1,0c-0.9,0-1.3-0.4-1.3-1.3c0-0.7,0-1.4,0-2.2
			c-0.3,0-0.6,0-0.9-0.1c-0.6-0.1-0.9,0.1-0.9,0.8c0,2.6,0,5.1,0,7.7c0,0.7,0.2,1.1,1,1.1c0.5,0,0.7-0.2,0.7-0.7c0-0.8,0-1.7,0-2.4
			c-0.1-0.1-0.1-0.2-0.2-0.2c-0.3-0.2-0.5-0.4-0.8-0.6c0.3-0.1,0.6-0.4,0.9-0.4c0.4-0.1,1-0.1,1,0.6c0,1.2,0,2.5,0,3.7
			c0,0.2-0.1,0.5-0.2,0.6c-0.9,0.5-0.7,1.3-0.7,2c0,0.6,0,1.3,0,1.9c0,0.5,0.1,0.7,0.7,0.7c0.8,0,1.7,0,2.5,0c0.3,0,0.5,0.3,0.7,0.4
			c-0.2,0.1-0.4,0.3-0.7,0.4c-0.2,0.1-0.5,0-0.7,0.1c-0.2,1,0.2,1.6,1.1,1.7c2.2,0,4.4,0,6.6,0c0.2,0,0.5-0.1,0.7-0.2
			c1.1-0.8,1.1-0.8,2.5-1.1c0.1-0.2,0.1-0.5,0.2-0.6c0.1-0.1,0.4-0.2,0.6-0.2c0.1,0.4,0.2,0.9,0.2,1.3c0,0.2-0.4,0.6-0.5,0.5
			c-1.1-0.1-1.9,0.2-2.6,1c-0.2,0.2-0.7,0.3-1,0.3c-1.5,0-2.9,0-4.4,0c-0.5,0-0.8,0.1-0.7,0.7c0,0.5,0,1,0.7,1c1.4,0,2.7,0,4,0
			c0.2,0,0.4-0.4,0.7-0.6c0.2-0.2,0.4-0.4,0.5-0.6c0.1,0.2,0.3,0.4,0.3,0.6c0.1,1.4,0.1,1.4-1.3,1.4c-0.5,0-1,0-1.4,0
			c-0.6,0-0.6,0.4-0.4,0.8c0.1,0.2,0.4,0.4,0.6,0.6c0.5,0.4,3.3,0.5,3.8,0.1c0.8-0.7,0.9-2.3,0-3c-0.4-0.3-0.3-0.6,0.1-0.8
			c0.7-0.3,1.3,0,1.3,0.8c0,0.6,0,1.1,0,1.7c0,1.5-0.9,2.5-2.4,2.5c-0.5,0-1.1,0-1.6,0c-1.5,0-2.4-0.8-2.9-2.2
			c-0.1-0.2-0.4-0.4-0.6-0.5c-0.3-0.1-0.6,0-1,0c-0.9,0-1.3-0.4-1.3-1.3c0-0.8-0.1-1.1-1.1-1.3c-0.7-0.1-1.4-1-1.7-1.7
			c-0.2-0.6-0.4-0.9-1.1-0.9c-1.4,0-1.4,0-1.4-1.4c0-0.7,0-1.3,0-2c0-0.8,0.1-1.6-0.9-2.1c-0.4-0.2-0.7-1-0.7-1.5
			c-0.1-2.7,0-5.3,0-8c0-1.1,0.4-1.5,1.5-1.5c0.9,0,1.3-0.2,1.2-1.2c-0.1-0.9,0-1.8,0-2.7c0-0.7,0.2-1.3,1-1.5
			c0.2-0.1,0.4-0.4,0.4-0.6c0.1-0.3,0.1-0.6,0-0.9c-0.3-1.5,0.7-2.4,1.7-3.2c0.3-0.3,0.9-0.3,1.4-0.3c0.5,0,0.8-0.2,0.7-0.8
			c0-0.7,0-1.3,0-2c0-1,0.5-1.5,1.5-1.5c1.9,0,3.8,0,5.7,0c1,0,1.5,0.5,1.5,1.5c0,0.8-0.1,1.6,0,2.4c0.1,0.9-0.4,1.4-1,1.9
			c-0.1,0.1-0.4,0-0.6,0.1c0-0.2-0.1-0.6,0-0.7c1.2-1.2,0.5-2.6,0.6-3.9c0-0.1-0.3-0.3-0.5-0.3c-1.9,0-3.7,0-5.6,0
			c-0.5,0-0.6,0.2-0.6,0.7c0,0.7,0,1.4,0,2.2c0,0.9-0.5,1.3-1.3,1.3c-1.6,0.1-2.5,0.9-2.5,2.6c0,0.5,0,0.9,0,1.5
			c0.8,0,1.5,0.1,2.2,0c0.3-0.1,0.5-0.6,0.6-0.9c0-0.1-0.4-0.4-0.6-0.6c-0.2-0.2-0.5-0.3-0.8-0.5c0.3-0.1,0.5-0.3,0.8-0.3
			c1.5-0.1,1.7,0.8,1.4,2.3c-0.1,0.4,0,0.8,0,1.2c0,1.2,0,2.3,0,3.5c0,0.1-0.3,0.3-0.4,0.4c-0.1-0.2-0.4-0.3-0.4-0.5
			c0-0.8-0.1-1.6,0-2.4c0-0.9-0.3-1.3-1.2-1.2c-0.9,0.1-2.2-0.2-2.7,0.3c-0.5,0.4-0.2,1.7-0.2,2.7c0,1.5,0,3,0,4.5
			c0,0.5,0.2,0.7,0.7,0.8c1.3,0.1,2.7,0.6,3.8,0.2c1.1-0.4,2.5,0.3,3.4-0.8c0.1-0.1,0.4,0,0.6-0.1c0,0.3,0,0.6-0.1,0.8
			c-0.6,0.8-0.6,0.8-0.4,1.9c0.3,0,0.6,0,0.9,0.1c0.2,0.1,0.4,0.3,0.4,0.5c0,0.1-0.3,0.4-0.4,0.4c-0.7-0.1-0.9,0.3-1,1
			c-0.1,0.7-1.1,1.4-1.9,1.4c-0.9,0-1.7,0-2.6,0c-0.2,0-0.6,0.3-0.6,0.4C-277.3,289.1-277.3,290.1-277.3,291.2z"/>
		<path class="st2" d="M-256.6,298c-1.7,0-3.3,0-5,0c-0.4,0-1-0.2-1.3-0.5c-0.6-0.6-1.2-0.8-2-0.8c-0.3,0-0.8-0.1-0.8-0.3
			c-0.1-0.4,0-0.9,0-1.4c0.2,0.1,0.7,0.1,0.7,0.2c0.1,0.6,0.5,0.5,0.9,0.6c0.5,0.1,0.9,0.4,1.4,0.6c0.4,0.2,0.9,0.5,1.3,0.5
			c2,0.1,4.1,0.1,6.1,0c0.4,0,0.8-0.3,1.1-0.5c0.2-0.2,0.3-0.6,0.3-0.9c0-0.1-0.5-0.2-0.7-0.3c-0.3-0.1-0.5-0.3-0.8-0.4
			c0.3-0.1,0.5-0.4,0.8-0.4c0.8-0.1,1.6,0,2.4-0.1c0.3,0,0.6-0.3,0.7-0.6c0.1-1,0.1-2,0-3c0-0.2-0.1-0.5-0.2-0.5
			c-0.8-0.4-0.8-1.1-0.8-1.8c0-0.9,0-1.8,0-2.7c0-0.3,0.3-0.7,0.4-0.7c0.4-0.1,1.1-0.1,1.3,0.1c0.6,0.8-0.4,0.6-0.8,0.9
			c0,1,0,2,0,3.1c1.2,0.4,1.6,0.1,1.6-1.1c0-2.5,0-5,0-7.5c0-0.8-0.3-1-1-1c-0.8,0-0.9,0.4-0.9,1c0,0.5,0,1,0,1.4
			c0,0.8-0.4,1.2-1.2,1.2c-0.9,0-1.9,0-2.8,0c-0.7,0-1.1,0.2-1.1,1c0,0.3-0.3,0.5-0.4,0.7c-0.1-0.2-0.4-0.5-0.4-0.7
			c-0.1-0.9-0.9-1.4-1.7-1c-0.1,0-0.3,0.2-0.3,0.3c0,0.8-0.1,1.6,0,2.4c0.1,0.3,0.6,0.7,1,0.7c0.9,0.1,1.8,0,2.7,0
			c0.2,0,0.5-0.2,0.5-0.3c0.1-0.2-0.1-0.4-0.2-0.6c-0.1-0.2-0.3-0.4-0.5-0.6c0.4-0.1,0.8-0.3,1.1-0.3c0.2,0,0.5,0.4,0.5,0.6
			c0,1.6,0,3.2,0,4.8c0,0.4,0,0.8,0,1.4c0.5,0,0.9-0.1,1.3,0c0.2,0,0.4,0.3,0.6,0.4c-0.2,0.2-0.3,0.5-0.5,0.5
			c-1.2,0.1-2.5,0.2-3.3-1c-0.7-1-1.7-1.3-3-1.2c-0.9,0.1-1.7,0-2.6,0c-0.4,0-1.1,0.2-1.1,0.4c-0.1,0.5-0.1,1.2,0.2,1.7
			c0.4,0.6,1,1.1,1.5,1.6c0.2,0.2,0.7,0.2,1,0.2c0.9,0,1.7,0,2.6,0c0.2-1.1-0.5-1.8-1.5-1.9c-0.4,0-1.1,0.3-1.1-0.4
			c0-0.1,0.8-0.4,1.2-0.4c1.4,0,2.6,1.1,2.5,2.4c-0.1,0.8-0.5,1.3-1.3,1.3c-1,0-1.9,0-2.9,0c-0.4,0-0.7-0.2-1-0.5
			c-0.4-0.3-0.7-0.8-1.1-1c-1-0.8-1.2-1.8-1-3c0.1-0.9,0.6-1.3,1.5-1.4c1.6,0,3.2,0,4.7,0c0.1-0.1,0.1-0.2,0.2-0.2
			c0.2-0.3,0.4-0.7,0.6-1c0.1,0.4,0.4,0.7,0.4,1.1c0,0.9,0.8,1.3,1.5,2c0-1.2,0-2.1,0-3.1c0-0.2-0.4-0.4-0.6-0.4
			c-0.6-0.1-1.1,0-1.7,0c-2.1,0-2.5-0.3-3-2.1c-0.5-0.3-0.9-0.5-1.4-0.7c0.4-0.2,0.8-0.5,1.4-0.8c0-0.5,0.3-1.2-0.5-1.8
			c-0.1-0.1-0.1-0.4-0.1-0.7c0.3,0,0.5,0,0.8,0.1c0.5,0.1,1,0.3,1.5,0.5c0.5,0.1,1,0.2,1.5,0.3c0.1,0,0.2,0.1,0.3,0.1
			c1.2-0.1,2.5-0.2,3.7-0.3c0.6,0,0.8-0.3,0.8-0.9c0-2.2,0-4.3,0-6.5c0-0.6-0.2-0.9-0.8-0.8c-0.8,0-1.6,0-2.4,0
			c-0.7,0-0.9,0.3-0.9,0.9c0,0.8,0,1.7,0,2.5c0,0.2-0.2,0.5-0.4,0.7c-0.2-0.2-0.5-0.5-0.5-0.7c0-1.2,0.1-2.4,0.2-3.6
			c0-0.3-0.2-0.6-0.2-0.8c-0.4-1.8,0.2-2.5,1.7-2.3c0.2,0,0.4,0.3,0.6,0.4c-0.2,0.1-0.4,0.4-0.6,0.4c-0.8-0.1-1,0.3-0.8,1
			c0.1,0.2,0.4,0.5,0.6,0.6c0.6,0.1,1.3,0,2.1,0c0-1.3,0.5-2.7-0.9-3.5c-0.4-0.3-0.9-0.5-1.4-0.5c-1.1-0.1-1.5-0.4-1.5-1.5
			c0-0.6,0-1.3,0-1.9c0-0.5-0.1-0.8-0.7-0.8c-1.8,0-3.6,0-5.4,0c-0.6,0-0.7,0.2-0.7,0.8c0,0.8-0.1,1.5,0,2.2c0,0.4,0.4,0.8,0.6,1.1
			c0.1,0.2,0.1,0.5,0.1,0.8c-0.3-0.1-0.6,0-0.8-0.2c-0.6-0.4-0.9-1-0.9-1.8c0.1-0.8,0-1.7,0-2.5c0-0.9,0.4-1.3,1.2-1.3
			c2,0,4.1,0,6.1,0c0.8,0,1.2,0.4,1.2,1.3c0,0.7,0,1.4,0,2.2c0,0.6,0.2,0.8,0.8,0.8c1.9,0.1,3,1.4,3,3.2c0,0.3-0.1,0.6,0,0.9
			c0.1,0.3,0.3,0.8,0.6,0.9c0.6,0.3,0.8,0.7,0.8,1.3c0,1,0,2.1,0,3.1c0,0.7,0.2,1,0.9,1c1.7,0,1.8,0.2,1.8,1.8c0,2.6,0,5.1,0,7.7
			c0,0.9-0.4,1.4-1.1,1.8c-0.3,0.2-0.5,0.6-0.5,0.9c-0.1,1.1-0.1,2.2,0,3.3c0,0.7-0.3,1-1,0.9c-0.8-0.1-1.5,0-1.5,1.1
			c0,0.7-1.2,1.6-1.9,1.5c-0.7,0-0.8,0.3-0.8,0.9c0,1.4-0.3,1.7-1.8,1.7c-0.7,0-1.2,0-1.3,0.9c-0.2,0.9-1.5,1.8-2.5,1.8
			c-0.6,0-1.3,0-1.9,0c-1.5,0-2.4-0.9-2.4-2.4c0-0.6,0-1.1,0-1.7c0-0.8,0.4-1.1,1.1-0.9c0.2,0.1,0.4,0.2,0.4,0.4
			c0,0.1-0.1,0.4-0.2,0.5c-0.4,0.4-0.7,1.7-0.4,2.3c0.3,0.6,0.8,1,1.5,0.9c0.6,0,1.2-0.1,1.7,0c0.8,0.1,1.3-0.4,1.7-1
			c0.3-0.4,0.2-0.7-0.4-0.7c-0.7,0-1.3,0-2,0c-0.3,0-0.7-0.2-0.7-0.4c-0.1-0.5,0-1,0.1-1.6c0.2,0.1,0.7,0.2,0.7,0.4
			c0,0.8,0.5,0.8,1,0.8c1,0,2,0,3.1,0C-256.4,299.7-256.3,299.6-256.6,298z"/>
		<path class="st2" d="M-269.5,277.9c0,0.4,0,0.8,0,1.2c0,0.2-0.3,0.3-0.4,0.5c-0.1-0.2-0.4-0.3-0.4-0.5c-0.1-0.4-0.1-0.9,0-1.3
			c0-0.6-0.2-0.9-0.8-0.9c-0.6,0-0.8,0.3-0.7,0.8c0,0.8-0.1,1.5-0.7,2.2c-0.8,0.8-1.6,1.1-2.7,1.1c-3.4,0-3.1-0.1-3.1-3.2
			c0-0.7,0.1-1.3-0.5-1.8c-0.1-0.1-0.1-0.5-0.1-0.7c0.2,0,0.5,0,0.7,0.1c0.5,0.4,0.9,0.9,0.8,1.6c-0.1,0.8,0,1.6,0,2.3
			c0,0.5,0.2,0.7,0.7,0.7c0.8,0,1.5,0,2.3,0c0.8,0,1.7-1,1.7-1.8c0.1-2.3,0.4-2.5,2.7-2.3c0.3,0,0.7,0.2,0.9,0.5
			c0.4,0.4,0.6,0.8,0.9,1.2c0.1-0.1,0.2-0.2,0.3-0.2c-0.1-0.3-0.2-0.7-0.2-1.1c0-0.3,0.2-0.5,0.3-0.8c0.2,0.2,0.5,0.3,0.6,0.5
			c0.2,0.9,0.3,1.8,0.3,2.7c0,0.6-0.5,0.7-0.9,0.3c-0.4-0.4-0.8-1-1.2-1.4C-269.2,277.8-269.4,277.8-269.5,277.9z"/>
		<path class="st2" d="M-264.5,277.7c0.4-0.3,0.6-0.4,0.7-0.6c0.7-1,1.7-1.2,2.9-1.1c1,0.1,1.3,0.4,1.4,1.4c0,0.7-0.1,1.3,0.5,1.9
			c0.7,0.9,1.6,0.8,2.4,0.8c1.8,0,1.8,0,1.8-1.8c0-1-0.3-2,0.7-2.7c0.2-0.1,0.5-0.1,0.8-0.2c-0.1,0.3-0.1,0.5-0.2,0.8
			c-0.1,0.5-0.4,0.9-0.5,1.4c-0.1,0.7,0,1.5,0,2.2c0,0.8-0.5,1.2-1.2,1.2c-1,0-1.9,0.1-2.9,0c-1,0-2.3-1.5-2.4-2.6
			c0-0.2,0-0.5,0-0.7c0.1-0.6-0.2-0.8-0.8-0.8c-0.7,0-0.7,0.3-0.7,0.8c0,0.5,0,0.9,0,1.3c0,0.2-0.3,0.3-0.4,0.5
			c-0.2-0.1-0.4-0.3-0.5-0.5c-0.1-0.4-0.1-0.8-0.1-1.5c-0.5,0.5-0.9,0.9-1.4,1.3c-0.2,0.2-0.5,0.3-0.7,0.3c-0.2,0-0.3-0.4-0.3-0.6
			c0-0.7,0.1-1.5,0.2-2.2c0.1-0.3,0.4-0.5,0.7-0.8c0.1,0.3,0.2,0.6,0.2,0.9C-264.3,276.9-264.4,277.2-264.5,277.7z"/>
		<path class="st2" d="M-261.8,274.6c-1,0.2-2-0.1-3-0.7c-0.8-0.5-0.6-1.1-0.5-1.8c0.1-0.7,0.6-0.8,1.2-0.8c0.1,0,0.2,0,0.3,0
			c1.6,0.4,2.7-0.6,3.5-1.7c0.3-0.4,0.1-1,0.2-1.6c-0.6,0-1.1-0.1-1.7-0.1c-0.1,0-0.1,0.5-0.2,0.8c-0.1,0.3-0.3,0.5-0.5,0.7
			c-0.1-0.2-0.4-0.4-0.4-0.7c-0.2-1.2,0.3-1.8,1.6-1.8c0.1,0,0.2,0,0.4,0c0.7,0,1.4-0.2,1.8,0.7c0.3,0.7,0,2.1-0.5,2.7
			c-0.2,0.1-0.3,0.3-0.4,0.5c-0.9,1.2-2,1.6-3.4,1.4c-0.3,0-0.6,0.2-0.9,0.3c0.2,0.3,0.4,0.8,0.6,0.8c1.2,0.2,2.3,0.3,3.5,0.3
			c0.1,0,0.3-0.4,0.4-0.6c0.3-0.6,0.5-1.2,0.8-1.8c0.1-0.2,0.4-0.2,0.7-0.3c0,0.3,0.1,0.5,0,0.8c-0.2,0.6-0.4,1.3-0.7,1.9
			c-0.2,0.4-0.6,0.8-1.1,0.9C-260.7,274.7-261.2,274.6-261.8,274.6z"/>
		<path class="st2" d="M-270.8,274.6c-0.4,0-0.7,0-1.1,0c-1.1,0-1.3-0.3-1.5-1.4c-0.1-0.5-0.4-1-0.6-1.5c-0.1-0.2,0-0.5,0-0.8
			c0.3,0.1,0.6,0.1,0.7,0.3c0.3,0.6,0.5,1.2,0.8,1.9c0.1,0.2,0.2,0.5,0.3,0.5c1.2,0,2.5,0.4,3.7-0.4c0.2-0.1,0.3-0.5,0.5-0.8
			c-0.3-0.1-0.5-0.4-0.7-0.3c-2,0.4-3.1-0.8-4.2-2.1c-0.7-0.7-0.5-1.7-0.3-2.5c0.2-0.8,1-0.6,1.6-0.7c0.3,0,0.5,0,0.8,0
			c1,0.1,1.8,1.4,1.2,2.2c-0.1,0.1-0.4,0.2-0.4,0.2c-0.1-0.1-0.3-0.4-0.3-0.5c0-0.8-0.3-1.1-1-1c-0.3,0.1-0.9,0.1-0.9,0.3
			c0,0.5-0.1,1.1,0.2,1.4c0.9,1.2,1.9,2.1,3.6,1.8c0.7-0.1,1.3,0.1,1.5,0.8c0.1,0.8,0.2,1.5-0.8,1.8c-0.9,0.3-1.9,0.6-2.8,0.9
			C-270.7,274.8-270.7,274.7-270.8,274.6z"/>
		<path class="st2" d="M-268.8,282.6c-0.4-0.1-0.8-0.2-1.2-0.3c-0.2-0.1-0.4-0.3-0.6-0.5c0.2-0.2,0.5-0.5,0.6-0.4
			c0.5,0.1,1.2,0.1,1.5,0.5c0.5,0.5,0.9,0.6,1.6,0.6c0.5,0,0.9,0,1.4,0c0.6,0,1-0.1,1.4-0.6c0.4-0.7,1.1-0.5,1.8-0.5
			c0.2,0,0.3,0.3,0.5,0.4c-0.2,0.2-0.3,0.4-0.5,0.5c-0.2,0.1-0.5,0-0.7,0c-0.4,0.1-0.7,0.3-0.4,0.8c0.8,1.2,0.2,2.6,0.3,3.9
			c0,0.1-0.3,0.3-0.4,0.4c-0.1-0.2-0.4-0.3-0.4-0.5c0-0.8,0-1.5,0-2.3c0-1.1-0.2-1.3-1.3-1.3c-0.7,0-1.4,0-2.1,0s-1,0.4-1.1,1
			c0,0.8,0,1.6,0,2.4c0,0.2-0.3,0.4-0.5,0.6c-0.1-0.2-0.4-0.4-0.4-0.6c0-1-0.1-1.9,0-2.9c0-0.4,0.3-0.8,0.4-1.1
			C-268.8,282.8-268.8,282.7-268.8,282.6z"/>
		<path class="st2" d="M-264.8,289.7c-0.1,0.1-0.1,0.4-0.2,0.4c-0.8,0.1-0.6,0.7-0.7,1.2c0,0.7,0,1.4,0,2.1c0,0.3-0.3,0.5-0.4,0.8
			c-0.2-0.3-0.5-0.6-0.5-0.9c-0.1-0.8,0.1-1.7-0.1-2.5c-0.1-0.4-0.6-0.8-0.7-1.2c0-0.4,0.6-0.7,0.7-1.1c0.1-0.9,0-1.7,0.1-2.6
			c0-0.3,0.3-0.5,0.5-0.8c0.1,0.3,0.4,0.5,0.4,0.8c0.1,0.6,0,1.3,0,2c0,0.6-0.2,1.3,0.7,1.5C-265,289.4-264.9,289.5-264.8,289.7z"/>
	</g>
</g>
</svg>
